<?xml version="1.0" encoding="utf-8"?>
<!-- Generator: Adobe Illustrator 18.0.0, SVG Export Plug-In . SVG Version: 6.00 Build 0)  -->
<!DOCTYPE svg PUBLIC "-//W3C//DTD SVG 1.1//EN" "http://www.w3.org/Graphics/SVG/1.1/DTD/svg11.dtd">
<svg version="1.1" id="Layer_1" xmlns="http://www.w3.org/2000/svg" xmlns:xlink="http://www.w3.org/1999/xlink" x="0px" y="0px"
	 viewBox="1 243 612 309" enable-background="new 1 243 612 309" xml:space="preserve">
<g id="Layer_3">
	<polygon fill="#F9F5DE" points="572,547.4 1,547.4 42,246.6 613,246.6 	"/>
</g>
<g id="Layer_1_1_">
	<g>
		<g>
			<path fill="#004712" d="M528.6,344.7c-2.3-7-5.9-12.1-10.5-15.6s-10.5-6.2-16.8-7c-6.6-1.2-13.3-1.6-19.9-1.6
				c-11.3,0-21.1,0.8-28.9,2.7c-7.8,1.6-14.8,3.5-20.3,5.5l-19.2,112c3.9,0.8,7.4,1.2,10.5,1.6s5.9,0.4,8.6,0.4c2.3,0,5.5,0,8.6-0.4
				s7-0.8,10.9-1.6l14.5-85.5c0.4-0.4,1.6-0.8,3.5-0.8c2-0.4,3.9-0.4,5.5-0.4c6.2,0,10.5,1.6,12.9,5.1c2.3,3.5,3.1,9.4,1.6,17.2
				l-10.9,64.1c3.9,0.8,7.4,1.2,10.5,1.6s5.9,0.4,8.6,0.4c2.3,0,5.1,0,8.6-0.4c3.1-0.4,7-0.8,10.9-1.6L529,372
				C531,360.7,531,351.3,528.6,344.7 M401.3,380.6c-2.3-2.7-5.9-5.1-9.8-7.4c-3.9-2-8.2-3.9-12.9-5.9l-8.2-3.1
				c-2.7-1.2-5.5-2.3-7.4-3.9c-1.6-1.2-2.3-3.1-1.6-6.2c0.4-1.6,1.2-3.1,2-4.3c1.2-1.2,2.3-2,3.9-2.7c1.6-0.8,3.1-1.2,5.1-1.6
				s3.9-0.4,5.5-0.4c6.2,0,11.7,0.8,15.6,2s7.8,2.7,10.5,3.9l0.8,0.4l0.4-0.8c2.7-3.9,5.5-7.8,7.8-12.1c2.3-4.3,3.9-8.2,5.5-12.1
				l0.4-1.2l-1.2-0.4c-6.2-2-12.5-3.9-18.4-4.7c-5.9-1.2-12.1-1.6-18.4-1.6c-7,0-14.1,0.8-20.3,2.3c-6.2,1.6-11.7,4.3-16.8,7.4
				c-4.7,3.1-9,7.4-12.1,11.7c-3.1,4.7-5.5,10.2-7,16c-1.2,5.1-1.2,9.4-0.4,12.9c0.8,3.5,2,7,4.3,9.8c2,2.7,5.1,5.5,8.2,7.4
				c3.5,2,7,3.9,11.3,5.5l9.8,3.5c1.6,0.4,3.1,1.2,4.3,1.6c1.2,0.4,2.3,1.2,3.5,2c0.8,0.8,1.6,1.6,2,2.7s0.4,2.3,0,3.9
				c-0.8,3.9-3.1,6.6-6.6,8.2c-3.9,1.6-9,2.3-15.2,2.3c-8.2,0-18-2.3-28.1-6.6l-0.8-0.4l-0.4,0.8c-2.7,4.7-5.1,9-7.4,13.7
				c-2.3,4.3-3.9,8.6-5.5,12.5l-0.4,1.2l1.2,0.4c6.2,2.3,12.5,4.3,18.4,5.1c5.9,1.2,12.5,1.6,20.3,1.6c8.6,0,16.4-0.8,23.4-2.7
				c7-2,13.3-4.7,18.7-7.8c5.5-3.5,9.8-7.8,13.3-12.5s5.9-10.2,7-16.4c1.2-5.5,1.6-10.5,0.8-14.5
				C405.2,386.8,403.7,383.3,401.3,380.6 M192,316.2c1.2-3.1,2.3-5.9,3.1-8.6s1.2-5.1,1.6-7.8c0.4-2.3,0.8-5.1,0.8-7.4
				c0.4-2.7,0.4-5.5,0-8.6h-77.7l0,0l0,0c-8.6,0-15.6,5.9-17.6,14.1l0,0l0,0c0,0.4,0,0.4,0,0.8l-25,141c3.1,0.8,6.2,1.2,9.8,1.6
				c3.1,0.4,6.2,0.4,9.4,0.4c2.7,0,5.9,0,9.4-0.4s6.6-0.8,10.2-1.6l11.3-60.9h51.2c1.2-3.1,2.3-5.9,3.1-8.6s1.2-5.1,1.6-7.8
				c0.4-2.3,0.8-5.1,0.8-7.4c0.4-2.7,0.4-5.5,0-8.6h-51.2l5.1-30.5H192V316.2z M302.1,320.5c-3.1-0.4-6.2-0.4-9.4-0.4
				c-3.1,0-6.2,0-9.4,0.4c-3.5,0.4-6.6,0.8-10.2,1.6l-14.8,86.7c-0.8,0-1.6,0.4-3.1,0.4s-3.5,0.4-5.9,0.4c-6.2,0-10.5-1.6-12.9-5.1
				s-2.7-9.8-1.2-18.7l10.9-63.7c-3.1-0.8-6.2-1.2-9.4-1.6c-3.1-0.4-6.2-0.4-9.4-0.4c-3.1,0-6.2,0-9.4,0.4
				c-3.5,0.4-6.6,0.8-10.2,1.6l-11.3,66.8c-2,11.7-2,21.5,0,28.5s5.5,12.5,10.2,16.4s10.5,6.2,17.6,7.4c7,1.2,14.5,2,22.3,2
				c4.3,0,8.2-0.4,12.5-0.8c4.3-0.4,8.6-1.2,12.9-2s8.2-1.6,11.7-2.7c3.9-0.8,7-2,9.8-2.7l19.1-112.5
				C308.8,321.6,305.6,320.8,302.1,320.5"/>
			<path fill="#6CB33F" d="M317,304.4c0.8-2,1.2-3.5,1.6-5.5c0.4-1.6,0.8-3.5,0.8-4.7c0.4-1.6,0.4-3.1,0.4-4.7s0-3.5,0-5.5H213.9
				c-1.6,3.9-2.3,7-2.7,10.2c-0.4,3.1-0.4,6.2-0.4,10.2C210.7,304.4,317,304.4,317,304.4z M186.1,468.9c-0.4,0-1.2,0-2,0
				s-1.2,0-2,0.4c0,0.4,0,0.4,0,0.8s0,0.4,0,0.8c0,0.8,0,2-0.4,3.1c0,1.2-0.4,2.7-0.8,4.7h-0.4c-0.4,0-0.4,0-0.8,0
				c-2.7,0-5.1,0.4-7.4,1.6c-2,1.2-3.9,2.3-5.1,3.9c-1.6,1.6-2.3,3.5-3.1,5.9s-1.2,4.3-1.2,6.6s0.4,3.9,1.6,5.1c1.2,1.2,2.7,2,4.7,2
				c0.8,0,2,0,2.7-0.4c0.8-0.4,1.6-0.8,2.3-1.2c0.8-0.4,1.6-1.2,2-1.6c0.8-0.8,1.2-1.2,1.6-2c0,0.4,0,0.8,0,1.2s0,0.8,0,1.2
				c0,0.8,0,1.2,0,1.6s0,0.8,0,0.8c1.2,0,2,0.4,2.7,0.4c1.2,0,2,0,3.1-0.4c0-0.4,0-0.4,0-0.8v-0.8c0-0.8,0-2,0.4-3.5
				c0-1.6,0.4-3.1,0.8-5.1l3.1-17.2c0.4-2,0.4-3.5,0.4-5.1c0-0.8,0-1.2-0.4-2C188.1,469.3,186.9,468.9,186.1,468.9 M179.9,488.4
				c-0.8,3.5-1.6,5.9-2.7,7.8c-1.2,2-2.7,2.7-4.3,2.7s-2.3-1.2-2.3-3.5c0-1.2,0-2.3,0.4-3.5s0.8-2.3,1.6-3.5s1.6-2,2.7-2.7
				c1.2-0.8,2.3-1.2,3.9-1.2c0.4,0,0.4,0,0.8,0c0.4,0,0.4,0,0.8,0L179.9,488.4z M222.8,469.3c-2,0-3.5,0.4-5.1,0.8s-2.7,1.2-3.9,2
				s-2,2-2.7,3.5c-0.8,1.2-0.8,2.7-0.8,4.7c0,1.6,0.8,3.1,2,4.7c1.2,1.2,2.7,2.3,4.7,3.5c0.8,0.4,1.2,0.8,2,1.2
				c0.8,0.4,1.2,0.8,1.6,1.2c0.4,0.4,0.8,0.8,1.2,1.2c0.4,0.4,0.4,1.2,0.4,1.6c0,0.8,0,1.6-0.4,2.3s-0.8,1.2-1.6,1.6
				s-1.2,0.8-2.3,1.2c-0.8,0.4-1.6,0.4-2.7,0.4c-1.2,0-2.3,0-3.5-0.4s-2.3-0.8-3.5-1.2c-0.4,1.2-0.8,2-1.2,3.1
				c-0.4,0.8-0.4,2-0.8,2.7c2.7,1.2,5.9,1.6,8.6,1.6c2.7,0,4.7-0.4,6.6-1.2c2-0.8,3.5-1.6,4.7-2.7c1.2-1.2,2-2.3,2.7-3.9
				c0.4-1.6,0.8-3.1,0.8-4.7c0-1.2-0.4-2-0.8-3.1c-0.4-0.8-0.8-1.6-1.6-2.3s-1.6-1.2-2.3-2c-0.8-0.8-2-1.2-3.1-2s-2.3-1.6-3.1-2
				c-0.8-0.8-1.2-1.6-1.2-2.7c0-0.8,0-1.2,0.4-2c0.4-0.4,0.8-0.8,1.2-1.2c0.4-0.4,1.2-0.4,1.6-0.4c0.8,0,1.2,0,2,0
				c1.6,0,2.7,0,3.9,0.4c0.8,0.4,2,0.8,2.7,1.2c0.4-0.8,1.2-2,1.2-2.7c0.4-0.8,0.4-2,0.8-2.7c-1.6-0.4-2.7-0.8-3.9-1.2
				C226,469.3,224.4,469.3,222.8,469.3 M192.8,490c0,0.8-0.4,2-0.4,2.7h11.7c0.4-0.8,0.4-2,0.8-2.7c0-1.2,0.4-2,0.4-3.1h-11.7
				C193.2,488,192.8,489.2,192.8,490 M108.4,479.4l-1.6,9.4c-0.4,2-0.8,3.9-1.2,5.1c-0.4,1.2-1.2,2.3-1.6,3.1
				c-0.4,0.8-1.2,1.2-1.6,1.6s-1.2,0.4-1.6,0.4c-0.8,0-1.2,0-1.6-0.4s-0.8-1.2-0.8-2c0-0.4,0-1.2,0-2l2.7-14.8
				c-1.2,0-2.3-0.4-3.1-0.4c-0.4,0-1.2,0-1.6,0s-1.2,0-2,0.4L92,495.4c0,0.8,0,1.2-0.4,1.6c0,0.4,0,1.2,0,1.6c0,2.3,0.4,3.9,1.6,4.7
				c1.2,0.8,2.3,1.6,4.3,1.6c0.8,0,1.6,0,2.3-0.4c0.8-0.4,1.6-0.8,2.3-1.2s1.2-0.8,2-1.6c0.4-0.8,1.2-1.2,1.6-2c0,0.4,0,0.8,0,1.2
				c0,0.4,0,0.4,0,0.8c0,0.8,0,1.2,0,1.6s0,0.8,0,0.8c1.2,0,2,0.4,2.7,0.4c1.2,0,2,0,3.1-0.4c0-0.4,0-0.4,0-0.8v-0.8
				c0-0.8,0-2,0.4-3.5c0-1.6,0.4-3.1,0.8-5.1l2.7-14.1c-1.2,0-2.3-0.4-3.1-0.4C110.7,479,109.6,479,108.4,479.4 M253.3,502.8V502
				c0-0.8,0-2,0.4-3.5c0-1.6,0.4-3.1,0.8-5.1l2.3-13.3c-1.2-0.4-2.3-0.8-3.5-0.8s-2.3-0.4-3.9-0.4c-2.7,0-5.1,0.4-7.4,1.6
				c-2,1.2-3.9,2.3-5.1,3.9c-1.6,1.6-2.3,3.5-3.1,5.9s-1.2,4.3-1.2,6.6c0,2.3,0.4,3.9,1.6,5.1c1.2,1.2,2.7,2,4.7,2s3.5-0.4,5.1-1.6
				c1.6-0.8,2.7-2.3,3.5-3.5c0,0.4,0,0.8,0,1.2v0.8c0,0.8,0,1.2,0,1.6s0,0.8,0,0.8c1.2,0,2,0.4,2.7,0.4c1.2,0,2,0,3.1-0.4
				C253.3,503.2,253.3,503.2,253.3,502.8 M248.6,488.4c-0.8,3.5-1.6,5.9-2.7,7.8c-1.2,2-2.7,2.7-4.3,2.7s-2.3-1.2-2.3-3.5
				c0-1.2,0-2.3,0.4-3.5s0.8-2.3,1.6-3.5s1.6-2,2.7-2.7c1.2-0.8,2.3-1.2,3.9-1.2c0.4,0,0.4,0,0.8,0c0.4,0,0.4,0,0.8,0L248.6,488.4z
				 M159.2,480.2c-0.8-0.4-1.6-0.8-2.3-1.2c-0.8-0.4-2-0.4-2.7-0.4c-2.3,0-4.3,0.4-5.9,1.2c-1.6,0.8-3.1,2-4.3,3.5s-2,3.1-2.7,5.1
				c-0.8,2-1.2,3.9-1.2,5.5s0.4,2.7,0.8,4.3c0.4,1.2,1.2,2.3,2,3.1c0.8,0.8,2,1.6,3.5,2c1.2,0.4,3.1,0.8,5.1,0.8c0.8,0,1.2,0,2,0
				s1.6,0,2.3-0.4c0.8,0,1.6-0.4,2.3-0.4c0.8-0.4,1.2-0.4,2-0.8c0-1.2,0-2-0.4-2.7c0-0.8-0.4-1.6-1.2-2.3c-1.2,0.4-2,0.8-3.1,1.2
				c-0.8,0.4-2,0.4-3.5,0.4s-2.7-0.4-3.5-1.2s-1.2-2-1.6-3.5l3.1-0.4c1.6-0.4,3.1-0.4,4.3-1.2c1.6-0.4,2.7-1.2,3.9-2s2-1.6,2.7-2.7
				s1.2-2.3,1.2-3.5s0-2-0.4-2.7C160.3,481.4,159.6,481,159.2,480.2 M154.5,486.8c0,0.4-0.4,0.8-0.8,1.2c-0.4,0.4-1.2,0.8-2,1.2
				c-0.8,0.4-1.6,0.4-2.7,0.8l-2.3,0.4c0-0.8,0.4-1.6,0.8-2.3c0.4-0.8,0.8-1.6,1.2-2c0.4-0.8,1.2-1.2,2-1.6s1.6-0.4,2.3-0.4
				c0.8,0,1.2,0.4,1.6,0.4c0.4,0.4,0.8,0.8,0.8,1.6C154.9,486,154.5,486.4,154.5,486.8 M79.9,475.9h11.7c0.4-0.8,0.8-1.6,0.8-2.7
				c0.4-0.8,0.4-1.6,0.4-2.3v-0.4V470H74l-5.9,34c1.2,0,2.3,0.4,3.5,0.4s2.3,0,3.5-0.4l2.3-14.1h9.4c0.4-1.2,0.8-2,0.8-3.1
				c0-0.8,0.4-2,0.4-2.7h-9.4L79.9,475.9z M133.8,479c-0.8,0-1.2,0-2-0.4c-0.8,0-1.2,0-1.6,0c-1.6,0-2.7,0.4-3.9,0.4
				c-1.2,0.4-2.3,0.8-3.1,1.6c-0.8,0.8-1.6,1.6-2.3,2.7c-0.4,1.2-0.8,2.3-0.8,3.5c0,0.8,0,1.6,0.4,2.3s0.8,1.2,1.2,1.6
				c0.4,0.4,0.8,0.8,1.6,1.2c0.4,0.4,1.2,0.4,1.6,0.8l1.6,0.8c0.8,0.4,1.6,0.8,2,1.2c0.4,0.4,0.8,0.8,0.8,1.6c0,0.4,0,1.2-0.4,1.6
				c-0.4,0.4-0.8,0.8-1.2,0.8c-0.4,0.4-0.8,0.4-1.6,0.4c-0.4,0-1.2,0-1.6,0c-0.8,0-2,0-3.1-0.4c-1.2,0-2-0.4-3.1-0.8
				c-0.8,1.6-1.2,3.1-1.6,5.1c0.8,0.4,2,0.8,3.1,0.8c1.2,0.4,2.3,0.4,3.5,0.4c1.6,0,3.1,0,4.7-0.4s2.7-0.8,3.9-1.6
				c1.2-0.8,2-1.6,2.7-2.7c0.8-1.2,0.8-2.3,0.8-3.9c0-0.8,0-1.6-0.4-2.3s-0.8-1.2-1.2-1.6s-0.8-0.8-1.6-1.2
				c-0.4-0.4-1.2-0.8-1.6-0.8l-2-0.8c-1.2-0.4-2-1.2-2-2.3c0-0.4,0-0.8,0.4-1.2c0.4-0.4,0.4-0.4,0.8-0.8c0.4,0,0.8-0.4,1.2-0.4
				s0.8,0,1.2,0c0.8,0,1.6,0,2.7,0.4c0.8,0.4,1.6,0.4,2.3,0.8c0.4-0.8,0.8-1.6,1.2-2.3c0.4-0.8,0.4-1.6,0.4-2.3
				c-0.4-0.4-1.2-0.4-1.6-0.8C135,479.4,134.6,479,133.8,479 M406,479c-0.8,0-1.6,0-2.3,0.4c-0.8,0.4-1.2,0.8-2,1.2
				c-0.4,0.4-1.2,0.8-1.6,1.6c-0.4,0.4-0.8,1.2-1.2,1.6c0-0.4,0-0.8,0-1.2c0-0.4,0-0.4,0-0.8c0-0.8,0-1.2,0-1.6s0-0.8,0-0.8
				c-0.4,0-1.2,0-1.6-0.4c-0.4,0-0.8,0-1.6,0c-1.2,0-2,0-3.1,0.4c0,0.4,0,0.4,0,0.8v0.8c0,0.8,0,2-0.4,3.5c0,1.6-0.4,3.1-0.8,5.1
				l-2.7,14.1c1.2,0,2.3,0.4,3.1,0.4c1.2,0,2.3,0,3.5-0.4l1.6-9.4c0.4-1.6,0.4-2.7,0.8-3.9c0.4-1.2,0.8-2,1.2-2.7
				c0.4-0.8,1.2-1.6,2-2s2-0.8,3.1-0.8c0.4,0,0.8,0,0.8,0c0.4,0,0.4,0,0.8,0c0.4-0.8,0.8-1.6,0.8-2.3c0.4-0.8,0.4-2,0.4-2.7v-0.4
				V479C407.2,479,406.8,479,406,479 M418.5,468.9c-0.4,0-1.2,0-1.6,0c-0.8,0-1.2,0-2,0.4c-0.4,1.2-0.8,2-0.8,3.1s-0.4,2-0.4,3.1
				c0.4,0,1.2,0,1.6,0c0.8,0,1.2,0,1.6,0s1.2,0,1.6,0c0.8,0,1.2,0,2,0c0.4-1.2,0.8-2,0.8-3.1c0.4-1.2,0.4-2,0.4-3.1
				c-0.4,0-1.2-0.4-1.6-0.4S419.3,468.9,418.5,468.9 M409.9,481.8c0,0.8-0.4,1.6-0.4,2.3v0.4c0,0,0,0,0,0.4h3.1l-3.5,19.1
				c1.2,0,2.3,0.4,3.1,0.4c1.2,0,2.3,0,3.5-0.4l4.3-24.2h-9.4C410.3,480.2,410.3,481,409.9,481.8 M442.7,480.2
				c-0.8-0.4-1.6-0.8-2.3-1.2c-0.8-0.4-2-0.4-2.7-0.4c-2.3,0-4.3,0.4-5.9,1.2c-1.6,0.8-3.1,2-4.3,3.5s-2,3.1-2.7,5.1
				c-0.8,2-1.2,3.9-1.2,5.5s0.4,2.7,0.8,4.3c0.4,1.2,1.2,2.3,2,3.1c0.8,0.8,2,1.6,3.5,2c1.6,0.4,3.1,0.8,5.1,0.8c0.8,0,1.2,0,2,0
				s1.6,0,2.3-0.4c0.8,0,1.6-0.4,2.3-0.4c0.8-0.4,1.2-0.4,2-0.8c0-1.2,0-2-0.4-2.7c0-0.8-0.4-1.6-1.2-2.3c-1.2,0.4-2,0.8-3.1,1.2
				c-0.8,0.4-2,0.4-3.1,0.4c-1.6,0-2.7-0.4-3.5-1.2c-0.8-0.8-1.2-2-1.6-3.5l3.1-0.4c1.6-0.4,3.1-0.4,4.3-1.2c1.6-0.4,2.7-1.2,3.9-2
				c1.2-0.8,2-1.6,2.7-2.7s1.2-2.3,1.2-3.5s0-2-0.4-2.7C443.9,481.4,443.5,481,442.7,480.2 M438.4,486.8c0,0.4-0.4,0.8-0.8,1.2
				c-0.4,0.4-1.2,0.8-2,1.2c-0.8,0.4-1.6,0.4-2.7,0.8l-2.3,0.4c0-0.8,0.4-1.6,0.8-2.3c0.4-0.8,0.8-1.6,1.2-2c0.4-0.8,1.2-1.2,2-1.6
				s1.6-0.4,2.3-0.4s1.2,0.4,1.6,0.4c0.4,0.4,0.8,0.8,0.8,1.6C438.4,486,438.4,486.4,438.4,486.8 M484.5,493.9l1.6-9.4h5.9
				c0.4-0.8,0.4-1.6,0.8-2.3c0-0.8,0.4-1.6,0.4-2.7h-5.9l0.4-1.6c0-0.8,0.4-1.2,0.4-2c0-0.4,0-1.2,0-1.6c0-0.8,0-1.2-0.4-2
				c-1.2,0-2.3,0-3.5,0.4s-2.3,0.8-3.1,1.2c0,0.4,0,1.2,0,1.6c0,0.8,0,1.6-0.4,2.3l-0.4,1.6h-3.5c-0.4,0.8-0.4,2-0.8,2.7
				c0,0.8,0,1.6,0,2.3h3.5l-2,10.2c0,0.8,0,1.2-0.4,1.6c0,0.4,0,1.2,0,1.6c0,2.3,0.8,3.9,2,5.1c1.2,0.8,3.1,1.6,5.9,1.6
				c2,0,3.5-0.4,4.7-0.8c0-0.4,0-0.4,0-0.8v-0.8c0-1.6-0.4-2.7-0.8-3.5c-0.4,0-0.8,0-1.2,0.4c-0.4,0-0.8,0-1.6,0
				c-1.2,0-1.6-0.4-2-0.8s-0.4-1.2-0.4-2c0-0.4,0-0.8,0-1.2C484.1,494.6,484.1,494.2,484.5,493.9 M465.4,479c-0.8,0-1.6,0-2.3,0.4
				c-0.8,0.4-1.6,0.8-2.3,1.2c-0.8,0.4-1.6,0.8-2,1.6c-0.4,0.8-1.2,1.2-1.6,2c0-0.4,0-0.8,0-1.2c0-0.4,0-0.4,0-0.8
				c0-0.8,0-1.2,0-1.6s0-0.8,0-0.8c-0.4,0-1.2,0-1.6-0.4c-0.4,0-0.8,0-1.6,0c-1.2,0-2,0-3.1,0.4c0,0.4,0,0.4,0,0.8v0.4
				c0,0.8,0,2-0.4,3.5c0,1.6-0.4,3.1-0.8,5.1l-2.7,14.1c1.2,0,2.3,0.4,3.1,0.4c1.2,0,2.3,0,3.5-0.4l1.6-9.4c0.4-2,0.8-3.9,1.2-5.1
				s1.2-2.3,1.6-3.1c0.4-0.8,1.2-1.2,1.6-1.6s1.2-0.4,1.6-0.4c0.8,0,1.2,0,1.6,0.4s0.8,1.2,0.8,2c0,0.4,0,1.2,0,2l-2.7,14.8
				c1.2,0,2,0.4,3.1,0.4c1.2,0,2.3,0,3.5-0.4l2.7-15.6c0-0.8,0-1.2,0.4-1.6c0-0.4,0-1.2,0-1.6c0-2.3-0.4-3.9-1.6-4.7
				C468.9,479.4,467.3,479,465.4,479 M509.5,479c-0.8,0-1.2,0-2-0.4c-0.8,0-1.2,0-1.6,0c-1.6,0-2.7,0.4-3.9,0.4
				c-1.2,0.4-2.3,0.8-3.1,1.6c-0.8,0.8-1.6,1.6-2.3,2.7c-0.4,1.2-0.8,2.3-0.8,3.5c0,0.8,0,1.6,0.4,2.3c0.4,0.8,0.8,1.2,1.2,1.6
				c0.4,0.4,0.8,0.8,1.6,1.2c0.4,0.4,1.2,0.4,1.6,0.8l1.6,0.8c0.8,0.4,1.6,0.8,2,1.2c0.4,0.4,0.8,0.8,0.8,1.6c0,0.4,0,1.2-0.4,1.6
				s-0.8,0.8-1.2,0.8c-0.4,0.4-0.8,0.4-1.6,0.4c-0.4,0-1.2,0-1.6,0c-0.8,0-2,0-3.1-0.4c-1.2,0-2-0.4-3.1-0.8
				c-0.8,1.6-1.2,3.1-1.6,5.1c0.8,0.4,2,0.8,3.1,0.8c1.2,0.4,2.3,0.4,3.5,0.4c1.6,0,3.1,0,4.7-0.4s2.7-0.8,3.9-1.6
				c1.2-0.8,2-1.6,2.7-2.7c0.8-1.2,0.8-2.3,0.8-3.9c0-0.8,0-1.6-0.4-2.3c-0.4-0.8-0.8-1.2-1.2-1.6c-0.4-0.4-0.8-0.8-1.6-1.2
				c-0.4-0.4-1.2-0.8-1.6-0.8l-2-0.8c-1.2-0.4-2-1.2-2-2.3c0-0.4,0-0.8,0.4-1.2c0.4-0.4,0.4-0.4,0.8-0.8c0.4,0,0.8-0.4,1.2-0.4
				c0.4,0,0.8,0,1.2,0c0.8,0,1.6,0,2.7,0.4c0.8,0.4,1.6,0.4,2.3,0.8c0.4-0.8,0.8-1.6,1.2-2.3c0.4-0.8,0.4-1.6,0.4-2.3
				c-0.4-0.4-1.2-0.4-1.6-0.8C510.7,479.4,510.3,479,509.5,479 M382.6,477.8c0-0.8,0.4-1.2,0.4-2c0-0.4,0-1.2,0-1.6
				c0-0.8,0-1.2-0.4-2c-1.2,0-2.3,0-3.5,0.4s-2.3,0.8-3.1,1.2c0,0.4,0,1.2,0,1.6c0,0.8,0,1.6-0.4,2.3l0.4,1.6h-4
				c-0.4,0.8-0.4,2-0.8,2.7c0,0.8,0,1.6,0,2.3h3.5l-2,10.2c0,0.8,0,1.2-0.4,1.6c0,0.4,0,1.2,0,1.6c0,2.3,0.8,3.9,2,5.1
				c1.2,0.8,3.1,1.6,5.9,1.6c2,0,3.5-0.4,4.7-0.8c0-0.4,0-0.4,0-0.8V502c0-1.6-0.4-2.7-0.8-3.5c-0.4,0-0.8,0-1.2,0.4
				c-0.4,0-0.8,0-1.6,0c-1.2,0-1.6-0.4-2-0.8s-0.4-1.2-0.4-2c0-0.4,0-0.8,0-1.2c0-0.4,0-0.8,0-1.2l1.6-9.4h5.9
				c0.4-0.8,0.4-1.6,0.8-2.3c0-0.8,0.4-1.6,0.4-2.7h-5.9L382.6,477.8z M296.3,480.2c-0.8-0.4-1.6-0.8-2.3-1.2
				c-0.8-0.4-2-0.4-2.7-0.4c-2.3,0-4.3,0.4-5.9,1.2c-1.6,0.8-3.1,2-4.3,3.5c-1.2,1.6-2.3,3.1-2.7,5.1c-0.8,2-1.2,3.9-1.2,5.5
				s0.4,2.7,0.8,4.3c0.4,1.2,1.2,2.3,2,3.1c0.8,0.8,2,1.6,3.5,2c1.6,0.4,3.1,0.8,5.1,0.8c0.8,0,1.2,0,2,0s1.6,0,2.3-0.4
				c0.8,0,1.6-0.4,2.3-0.4c0.8-0.4,1.2-0.4,2-0.8c0-1.2,0-2-0.4-2.7c0-0.8-0.4-1.6-1.2-2.3c-1.2,0.4-2,0.8-3.1,1.2
				c-0.8,0.4-2,0.4-3.5,0.4s-2.7-0.4-3.5-1.2c-0.8-0.8-1.2-2-1.6-3.5l3.1-0.4c1.6-0.4,3.1-0.4,4.3-1.2c1.6-0.4,2.7-1.2,3.9-2
				c1.2-0.8,2-1.6,2.7-2.7s1.2-2.3,1.2-3.5s0-2-0.4-2.7C297.4,481.4,297,481,296.3,480.2 M292,486.8c0,0.4-0.4,0.8-0.8,1.2
				c-0.4,0.4-1.2,0.8-2,1.2c-0.8,0.4-1.6,0.4-2.7,0.8l-2.3,0.4c0-0.8,0.4-1.6,0.8-2.3c0.4-0.8,0.8-1.6,1.2-2c0.4-0.8,1.2-1.2,2-1.6
				s1.6-0.4,2.3-0.4s1.2,0.4,1.6,0.4c0.4,0.4,0.8,0.8,0.8,1.6C292,486,292,486.4,292,486.8 M272,476.7c0.4-0.8,0.4-1.2,0.8-1.6
				s0.8-0.4,1.2-0.8c0.4,0,0.8-0.4,1.6-0.4c0.4,0,0.8,0,1.2,0s0.8,0,1.2,0.4c0.4-0.8,0.8-1.6,1.2-2.3s0.4-1.6,0.8-2.7
				c-0.8-0.4-1.6-0.4-2-0.4c-0.8,0-1.6,0-2.3,0c-3.1,0-5.5,0.8-7,2.3c-2,1.6-3.1,4.3-3.5,7.8v0.4h-3.9c-0.4,0.8-0.4,2-0.8,2.7
				c0,0.8,0,1.6,0,2.3h3.9l-3.1,18.4c-0.4,1.6-0.4,2.7-0.8,3.5s-0.8,1.6-1.2,2c-0.4,0.4-0.8,0.8-1.6,1.2c-0.4,0-1.2,0.4-1.6,0.4
				c-0.4,0-0.4,0-1.2,0c-0.4,0-0.8,0-1.2-0.4c-0.8,1.6-1.6,3.1-1.6,5.1c1.6,0.4,2.7,0.8,4.3,0.8c1.6,0,2.7,0,3.9-0.4s2.3-1.2,3.1-2
				c0.8-0.8,2-2,2.3-3.5c0.8-1.6,1.2-3.5,1.6-5.9l3.5-19.1h5.1c0.4-0.8,0.4-2,0.8-2.7c0-0.8,0-1.6,0-2.3h-5.1V479
				C271.3,477.8,271.7,477.1,272,476.7 M338.8,469.6c-1.2,0-2.3,0-3.5,0.4l-3.9,21.5l-8.2-21.5c-0.8-0.4-2-0.4-2.7-0.4
				c-0.4,0-0.8,0-1.6,0c-0.4,0-1.2,0-1.6,0.4l-5.9,34c0.8,0,2,0.4,3.1,0.4c0.4,0,1.2,0,1.6,0s1.2,0,1.6-0.4l3.9-21.5l8.6,21.5
				c0.8,0,2,0.4,2.7,0.4s2,0,2.7-0.4l5.9-34c-0.4,0-0.8-0.4-1.6-0.4C339.6,469.6,339.2,469.6,338.8,469.6 M361.5,479.4l-2,9.4
				c-0.4,2-0.8,3.9-1.6,5.1c-0.4,1.2-1.2,2.3-1.6,3.1c-0.4,0.8-1.2,1.2-1.6,1.6s-1.2,0.4-1.6,0.4c-0.8,0-1.2,0-1.6-0.4
				s-0.8-1.2-0.8-2c0-0.4,0-1.2,0-2l2.7-14.8c-1.2,0-2.3-0.4-3.1-0.4c-0.4,0-1.2,0-1.6,0s-1.2,0-2,0.4l-2.7,15.6
				c0,0.8,0,1.2-0.4,1.6c0,0.4,0,1.2,0,1.6c0,2.3,0.4,3.9,1.6,4.7c1.2,0.8,2.3,1.6,4.3,1.6c0.8,0,1.6,0,2.3-0.4
				c0.8-0.4,1.6-0.8,2.3-1.2s1.2-0.8,2-1.6c0.4-0.8,1.2-1.2,1.6-2c0,0.4,0,0.8,0,1.2c0,0.4,0,0.4,0,0.8c0,0.8,0,1.2,0,1.6
				s0,0.8,0,0.8c1.2,0,2,0.4,2.7,0.4c1.2,0,2,0,3.1-0.4c0-0.4,0-0.4,0-0.8v-0.8c0-0.8,0-2,0.4-3.5c0-1.6,0.4-3.1,0.8-5.1l2.7-14.1
				c-1.2,0-2.3-0.4-3.1-0.4C363.8,479,362.7,479,361.5,479.4"/>
		</g>
		<text transform="matrix(1 0 0 1 512.8873 484.433)" fill="#6CB33F" font-family="'Aller-BoldItalic'" font-size="20">TM</text>
	</g>
</g>
</svg>
