<?xml version="1.0" encoding="utf-8"?>
<!-- Generator: Adobe Illustrator 18.0.0, SVG Export Plug-In . SVG Version: 6.00 Build 0)  -->
<!DOCTYPE svg PUBLIC "-//W3C//DTD SVG 1.1//EN" "http://www.w3.org/Graphics/SVG/1.1/DTD/svg11.dtd">
<svg version="1.1" id="Layer_1" xmlns="http://www.w3.org/2000/svg" xmlns:xlink="http://www.w3.org/1999/xlink" x="0px" y="0px"
	 viewBox="0 245 612 305" enable-background="new 0 245 612 305" xml:space="preserve">
<g>
	<g>
		<path fill="#004712" d="M594.6,327.5c-2.9-8.6-7.3-15.2-13.3-20s-13.3-7.6-21.2-9.2c-8.2-1.6-16.5-2.2-25.1-2.2
			c-14.6,0-26.6,1.3-36.8,3.2c-10.1,2.2-18.7,4.4-25.7,6.7l-24.4,141.7c4.8,1,9.2,1.6,13.3,1.9c4.1,0.3,7.6,0.3,10.8,0.3
			s6.7,0,10.8-0.3c4.1-0.3,8.6-1,14-1.9l18.4-107.8c0.6-0.3,2.2-0.6,4.8-1.3c2.5-0.3,4.8-0.6,7-0.6c7.9,0,13.3,2.2,16.5,6.7
			c3.2,4.4,3.8,11.7,1.9,21.9l-14,81.2c4.8,1,9.2,1.6,13.3,1.9s7.6,0.3,10.8,0.3s6.7,0,10.8-0.3s8.9-1,14-1.9l14.9-86.3
			C597.7,347.5,597.4,336.1,594.6,327.5 M433.5,372.9c-3.2-3.5-7.3-6.7-12-9.2c-4.8-2.5-10.1-5.1-16.5-7.3l-10.5-4.1
			c-3.8-1.3-6.7-2.9-9.2-4.8c-2.2-1.6-2.9-4.1-1.9-7.6c0.3-2.2,1.3-3.8,2.5-5.4c1.3-1.6,2.9-2.5,4.8-3.5s4.1-1.6,6.3-1.9
			c2.2-0.3,4.8-0.6,7.3-0.6c7.9,0,14.6,1,19.7,2.5c5.1,1.6,9.5,3.2,13.3,4.8l1,0.3l0.6-1c3.5-4.8,7-10.1,9.8-15.5
			c2.9-5.4,5.1-10.5,6.7-15.2l0.6-1.3l-1.3-0.3c-7.9-2.5-15.9-4.8-22.8-6c-7.3-1.3-15.2-2.2-23.1-2.2c-9.2,0-17.8,1-25.4,3.2
			c-7.9,2.2-14.9,5.1-20.9,9.2s-11.4,9.2-15.5,14.9c-4.1,6-7.3,12.7-8.9,20.3c-1.3,6.3-1.6,11.7-0.6,16.5s2.5,8.9,5.4,12.4
			c2.5,3.5,6,6.7,10.5,9.2c4.1,2.5,9.2,4.8,14.3,6.7l12.4,4.4c1.9,0.6,3.8,1.6,5.4,2.2s3.2,1.6,4.4,2.5s1.9,2.2,2.5,3.5
			s0.6,3.2,0,5.1c-1,5.1-3.8,8.2-8.6,10.5s-11.1,3.2-19,3.2c-10.5,0-22.5-2.9-35.5-8.2l-1-0.3l-0.6,1c-3.5,5.7-6.7,11.4-9.5,17.1
			c-2.9,5.7-5.1,11.1-6.7,15.9l-0.3,1.3l1.3,0.3c8.2,2.9,15.9,5.1,23.1,6.7c7.3,1.6,15.9,2.2,25.7,2.2c10.8,0,20.9-1.3,29.8-3.5
			s16.8-5.7,23.5-10.1s12.4-9.8,16.8-15.9c4.4-6,7.3-13,8.9-20.6c1.6-7,1.9-13.3,0.6-18.1C438.9,380.8,436.6,376.3,433.5,372.9
			 M169.6,291.4c1.6-3.8,2.9-7.6,3.8-10.8c1-3.5,1.6-6.7,2.2-9.8c0.6-3.2,1-6.3,1.3-9.5s0.3-7,0-10.8H78.6l0,0l0,0
			c-10.8,0-20,7.6-22.2,17.8l0,0l0,0c0,0.3,0,0.6-0.3,1L24.4,447.1c4.1,1,8.2,1.6,12.4,1.9c4.1,0.3,7.9,0.3,12,0.3
			c3.8,0,7.6,0,12-0.3c4.1-0.3,8.6-1,12.7-1.9L88.2,370h64.4c1.6-3.8,2.9-7.6,3.8-10.8c1-3.5,1.6-6.7,2.2-9.5c0.6-3.2,1-6.3,1.3-9.5
			s0.3-7,0-10.8H94.2l6.7-38.7h68.8L169.6,291.4L169.6,291.4z M308.5,297.1c-4.1-0.3-8.2-0.6-11.7-0.6c-3.8,0-7.9,0.3-12,0.6
			s-8.6,1-13,1.9L253,408.4c-1,0.3-2.2,0.3-3.8,0.6c-1.9,0.3-4.4,0.3-7.6,0.3c-7.9,0-13.3-2.2-16.5-6.3s-3.8-12-1.6-23.8l13.6-80.2
			c-3.8-1-7.9-1.6-12-1.9s-7.9-0.6-11.7-0.6s-7.9,0.3-12,0.6c-4.1,0.3-8.6,1-13,1.9l-14.6,84.3c-2.5,14.9-2.5,27,0,35.8
			c2.5,8.9,6.7,15.9,12.7,20.6c6,4.8,13.3,7.9,22.2,9.5s18.1,2.2,27.9,2.2c5.1,0,10.5-0.3,16.2-1c5.4-0.6,10.8-1.3,16.2-2.5
			c5.4-1,10.1-2.2,14.9-3.2c4.8-1.3,8.9-2.2,12.4-3.5L320.6,299C316.8,298,312.7,297.4,308.5,297.1"/>
		<path fill="#6CB33F" d="M327.2,276.5c1-2.5,1.6-4.8,2.2-6.7c0.6-2.2,1-4.1,1.3-6s0.6-3.8,0.6-6c0.3-2.2,0-4.4,0-6.7H196.9
			c-1.9,4.8-2.9,9.2-3.5,13s-0.6,7.9-0.3,12.7h134.1V276.5z M161.7,484.5c-0.6,0-1.3,0-2.2,0s-1.6,0-2.2,0.3c0,0.3,0,0.6,0,1
			s0,0.6,0,1c0,1,0,2.5-0.3,4.1s-0.6,3.5-1,6c-0.3,0-0.3,0-0.6,0s-0.6,0-1,0c-3.5,0-6.7,0.6-9.2,1.9s-4.8,2.9-6.7,5.1
			s-3.2,4.8-4.1,7.3c-1,2.9-1.3,5.7-1.3,8.6s0.6,5.1,1.9,6.7c1.3,1.6,3.2,2.5,6,2.5c1.3,0,2.2-0.3,3.5-0.6c1-0.3,2.2-1,2.9-1.6
			c1-0.6,1.9-1.3,2.5-2.2s1.6-1.6,1.9-2.5c0,0.6,0,1,0,1.6c0,0.3,0,1,0,1.3c0,1,0,1.6,0,1.9s0,1,0.3,1.3c1.3,0.3,2.5,0.3,3.8,0.3
			s2.5,0,3.8-0.3c0-0.3,0-0.6,0-1v-1c0-1,0-2.5,0.3-4.4s0.6-4.1,1-6.7l3.8-21.6c0.3-2.5,0.6-4.8,0.6-6.3c0-1,0-1.6-0.3-2.2
			C164.3,484.8,163,484.5,161.7,484.5 M154.1,509.2c-0.6,4.1-1.9,7.6-3.5,9.8s-3.5,3.5-5.4,3.5s-2.9-1.6-2.9-4.4
			c0-1.3,0.3-2.9,0.6-4.4c0.3-1.6,1-3.2,1.9-4.8c1-1.6,1.9-2.5,3.2-3.5s2.9-1.6,4.8-1.6c0.3,0,0.6,0,1,0s0.6,0,1,0L154.1,509.2z
			 M208,485.1c-2.5,0-4.8,0.3-6.7,1c-1.9,0.6-3.5,1.6-5.1,2.5c-1.3,1.3-2.5,2.5-3.2,4.1c-0.6,1.6-1.3,3.5-1.3,5.7s0.6,4.1,2.2,5.7
			s3.5,3.2,6,4.8c0.6,0.3,1.6,1,2.2,1.3c0.6,0.3,1.3,1,1.9,1.3c0.6,0.6,1,1,1.3,1.6s0.6,1.3,0.6,2.2s-0.3,1.9-0.6,2.9
			c-0.3,0.6-1,1.6-1.9,1.9c-0.6,0.6-1.6,1-2.9,1.3c-1,0.3-2.2,0.3-3.5,0.3c-1.6,0-2.9-0.3-4.4-0.6s-3.2-1-4.8-1.6
			c-0.6,1.3-1,2.5-1.6,3.8c-0.3,1.3-0.6,2.5-1,3.5c3.5,1.3,7.3,2.2,11.1,2.2c3.2,0,6-0.3,8.2-1.3s4.4-1.9,5.7-3.5
			c1.6-1.3,2.5-3.2,3.5-4.8c0.6-1.9,1-3.8,1-5.7c0-1.6-0.3-2.5-0.6-3.8c-0.6-1-1.3-2.2-1.9-2.9c-1-1-1.9-1.6-3.2-2.5
			c-1.3-0.6-2.5-1.6-3.8-2.2c-1.6-1-2.9-1.9-3.8-2.5c-1-1-1.6-1.9-1.6-3.5c0-1,0.3-1.6,0.6-2.2s1-1,1.6-1.3s1.3-0.6,2.2-0.6
			c1,0,1.6-0.3,2.2-0.3c1.9,0,3.5,0.3,4.8,0.6c1.3,0.3,2.5,1,3.5,1.3c0.6-1.3,1.3-2.2,1.6-3.5s0.6-2.2,1-3.5
			c-1.9-0.6-3.5-1.3-5.1-1.6C212.1,485.1,210.2,485.1,208,485.1 M170.3,511.1c-0.3,1.3-0.3,2.2-0.3,3.5h14.9c0.3-1.3,0.6-2.2,1-3.5
			c0.3-1.3,0.3-2.5,0.3-3.8h-14.9C170.6,508.6,170.3,509.8,170.3,511.1 M63.7,497.8l-2.2,12c-0.6,2.9-1,4.8-1.6,6.3
			c-0.6,1.6-1.3,2.9-2.2,3.8c-0.6,1-1.3,1.6-2.2,1.9c-0.6,0.3-1.3,0.3-1.9,0.3c-1,0-1.6-0.3-2.2-0.6c-0.6-0.3-0.6-1.3-0.6-2.5
			c0-0.6,0-1.6,0.3-2.2l3.5-19c-1.3-0.3-2.9-0.3-4.1-0.3c-0.6,0-1.3,0-2.2,0c-0.6,0-1.6,0-2.2,0.3l-3.5,19.7c0,0.6-0.3,1.6-0.3,2.2
			c0,0.6,0,1.3,0,1.9c0,2.9,0.6,4.8,1.9,6c1.3,1.3,3.2,1.9,5.7,1.9c1,0,2.2,0,3.2-0.6c1-0.3,1.9-0.6,2.9-1.3c1-0.6,1.6-1.3,2.5-1.9
			c0.6-0.6,1.3-1.6,1.9-2.5c0,0.6,0,1,0,1.3s0,0.6,0,1c0,1,0,1.6,0,1.9s0,1,0.3,1.3c1.3,0.3,2.5,0.3,3.8,0.3s2.5,0,3.8-0.3
			c0-0.3,0-0.6,0-1v-1c0-1,0-2.5,0.3-4.4s0.6-4.1,1-6.7l3.2-17.4c-1.3-0.3-2.9-0.3-4.1-0.3C66.9,497.5,65.3,497.5,63.7,497.8
			 M246.7,527.3v-1c0-1,0-2.5,0.3-4.4s0.6-4.1,1-6.7l2.9-16.8c-1.6-0.3-2.9-0.6-4.4-1c-1.6-0.3-3.2-0.3-4.8-0.3
			c-3.5,0-6.7,0.6-9.2,1.9s-4.8,2.9-6.7,5.1s-3.2,4.8-4.1,7.3c-1,2.9-1.3,5.7-1.3,8.6s0.6,5.1,1.9,6.7s3.2,2.5,6,2.5
			c2.5,0,4.4-0.6,6.3-1.9c1.9-1.3,3.2-2.9,4.4-4.4c0,0.6,0,1,0,1.3v1.3c0,1,0,1.6,0,1.9s0.3,1,0.3,1.3c1.3,0.3,2.5,0.3,3.8,0.3
			s2.5,0,3.8-0.3C246.7,527.9,246.7,527.6,246.7,527.3 M240.7,509.2c-0.6,4.1-1.9,7.6-3.5,9.8s-3.5,3.5-5.4,3.5s-2.9-1.6-2.9-4.4
			c0-1.3,0.3-2.9,0.6-4.4s1-3.2,1.9-4.8c1-1.6,1.9-2.5,3.2-3.5s2.9-1.6,4.8-1.6c0.3,0,0.6,0,1,0c0.3,0,0.6,0,1,0L240.7,509.2z
			 M127.5,499.1c-1-0.6-1.9-1.3-2.9-1.6c-1.3-0.3-2.2-0.6-3.8-0.6c-2.9,0-5.1,0.6-7.3,1.6c-2.2,1.3-4.1,2.5-5.7,4.4
			s-2.9,3.8-3.5,6.3c-1,2.2-1.3,4.8-1.3,7.3c0,1.9,0.3,3.5,1,5.1c0.6,1.6,1.3,2.9,2.5,4.1c1.3,1,2.5,1.9,4.4,2.5
			c1.6,0.6,3.8,1,6.3,1c0.6,0,1.6,0,2.5,0s1.9-0.3,2.9-0.3c1-0.3,1.9-0.3,2.9-0.6s1.6-0.6,2.2-1c0-1.3,0-2.5-0.3-3.5
			c-0.3-1.3-0.6-2.2-1.3-2.9c-1.3,0.6-2.5,1-3.8,1.3s-2.5,0.6-4.1,0.6c-1.9,0-3.5-0.3-4.4-1.3c-1-1-1.6-2.2-1.9-4.1l4.1-0.6
			c1.9-0.3,3.8-0.6,5.4-1.3c1.9-0.6,3.5-1.3,4.8-2.2c1.3-1,2.5-1.9,3.5-3.5c1-1.3,1.3-2.9,1.3-4.8c0-1.3-0.3-2.5-0.6-3.5
			C129.1,500.3,128.4,499.7,127.5,499.1 M122.1,507.3c-0.3,0.3-0.6,1-1.3,1.3c-0.6,0.3-1.3,1-2.2,1.3c-1,0.3-2.2,0.6-3.8,1l-3.2,0.3
			c0.3-1,0.6-1.9,1-2.9c0.3-1,1-1.9,1.6-2.5s1.3-1.3,2.2-1.9c1-0.3,1.9-0.6,2.9-0.6s1.6,0.3,1.9,0.6c0.6,0.6,0.6,1,0.6,1.9
			C122.1,506.4,122.1,506.7,122.1,507.3 M27.9,493h14.9c0.3-1.3,0.6-2.2,1-3.2c0.3-1,0.3-2.2,0.3-3.2c0-0.3,0-0.3,0-0.6v-0.3H20.3
			L13,528.5c1.6,0.3,2.9,0.3,4.4,0.3c1.3,0,2.9,0,4.4-0.3l3.2-18.1h11.7c0.3-1.3,0.6-2.5,1-3.8c0.3-1.3,0.3-2.5,0.3-3.8H26L27.9,493
			z M95.8,497.5c-0.6,0-1.6-0.3-2.2-0.3s-1.6,0-2.2,0c-1.9,0-3.5,0.3-5.1,0.6c-1.6,0.6-2.9,1.3-4.1,1.9c-1.3,1-2.2,1.9-2.9,3.2
			c-0.6,1.3-1,2.9-1,4.4c0,1.3,0.3,2.2,0.6,2.9c0.3,1,0.6,1.6,1.3,2.2c0.6,0.6,1.3,1,1.9,1.6c0.6,0.3,1.3,0.6,1.9,1l1.9,0.6
			c1,0.3,1.9,1,2.2,1.3c0.6,0.6,1,1.3,1,1.9c0,0.6-0.3,1.3-0.6,1.9c-0.3,0.6-1,1-1.3,1.3c-0.6,0.3-1.3,0.3-1.9,0.6
			c-0.6,0-1.3,0.3-1.9,0.3c-1.3,0-2.5,0-3.8-0.3s-2.5-0.6-3.8-1.3c-1,1.9-1.6,4.1-1.9,6.3c1.3,0.6,2.5,1,4.1,1.3s2.9,0.3,4.1,0.3
			c2.2,0,4.1-0.3,6-0.6s3.5-1.3,4.8-2.2s2.5-2.2,3.2-3.5c0.6-1.6,1.3-3.2,1.3-5.1c0-1,0-1.9-0.6-2.9c-0.3-0.6-0.6-1.6-1.3-2.2
			c-0.6-0.6-1.3-1-1.9-1.6c-0.6-0.3-1.6-0.6-2.2-1.3l-2.2-1c-1.6-0.6-2.2-1.6-2.2-2.9c0-0.6,0-1,0.6-1.6c0.3-0.3,0.6-0.6,1.3-1
			c0.3-0.3,1-0.3,1.6-0.3s1,0,1.6,0c1,0,2.2,0,3.5,0.3s2.2,0.6,3.2,1c0.6-1,1.3-1.9,1.6-3.2c0.3-1,0.6-1.9,0.6-3.2
			c-0.6-0.3-1.3-0.6-1.9-1C97.3,497.8,96.7,497.5,95.8,497.5 M439.8,497.5c-1,0-1.9,0.3-2.9,0.6c-1,0.3-1.6,0.6-2.5,1.3
			c-0.6,0.6-1.3,1.3-1.9,1.9s-1,1.3-1.6,2.2c0-0.6,0-1,0-1.3s0-0.6,0-1c0-1,0-1.6,0-1.9s0-1-0.3-1.3c-0.6,0-1.3-0.3-1.9-0.3
			s-1.3,0-1.9,0c-1.3,0-2.5,0-3.8,0.3c0,0.3,0,0.6,0,1v1c0,1,0,2.5-0.3,4.4s-0.6,4.1-1,6.7l-3.2,17.4c1.3,0.3,2.9,0.3,4.1,0.3
			c1.3,0,2.9,0,4.4-0.3l2.2-12c0.3-1.9,0.6-3.5,1-4.8c0.3-1.6,1-2.5,1.6-3.8c0.6-1,1.6-1.9,2.5-2.2c1-0.6,2.5-1,4.1-1
			c0.3,0,0.6,0,1,0c0.3,0,0.6,0,0.6,0c0.6-1,1-1.9,1.3-2.9c0.3-1.3,0.3-2.2,0.3-3.5v-0.6c0-0.3,0-0.3,0-0.6
			C441.4,497.5,440.4,497.5,439.8,497.5 M455.7,484.2c-0.6,0-1.3,0-2.2,0c-1,0-1.6,0.3-2.2,0.3c-0.6,1.3-1,2.9-1,3.8
			c-0.3,1.3-0.3,2.5-0.3,4.1c0.6,0,1.3,0.3,2.2,0.3c0.6,0,1.6,0,2.2,0s1.3,0,2.2,0c0.6,0,1.6,0,2.2-0.3c0.6-1.3,1-2.5,1-3.8
			c0.3-1.3,0.3-2.5,0.3-4.1c-0.6-0.3-1.3-0.3-2.2-0.3C456.9,484.2,456.3,484.2,455.7,484.2 M444.6,500.3c-0.3,1-0.3,1.9-0.3,2.9v0.3
			v0.3h3.8l-4.4,24.4c1.6,0.3,2.9,0.3,4.1,0.3c1.3,0,2.9,0,4.4-0.3l5.4-30.8h-12C445.2,498.7,444.9,499.7,444.6,500.3 M486.1,499.1
			c-1-0.6-1.9-1.3-2.9-1.6c-1.3-0.3-2.2-0.6-3.8-0.6c-2.9,0-5.1,0.6-7.3,1.6c-2.2,1.3-4.1,2.5-5.7,4.4s-2.9,3.8-3.5,6.3
			c-1,2.2-1.3,4.8-1.3,7.3c0,1.9,0.3,3.5,1,5.1c0.6,1.6,1.3,2.9,2.5,4.1c1.3,1,2.5,1.9,4.4,2.5c1.6,0.6,3.8,1,6.3,1
			c0.6,0,1.6,0,2.5,0s1.9-0.3,2.9-0.3c1-0.3,1.9-0.3,2.9-0.6s1.6-0.6,2.2-1c0-1.3,0-2.5-0.3-3.5c-0.3-1.3-0.6-2.2-1.3-2.9
			c-1.3,0.6-2.5,1-3.8,1.3s-2.5,0.6-4.1,0.6c-1.9,0-3.5-0.3-4.4-1.3c-1-1-1.6-2.2-1.9-4.1l4.1-0.6c1.9-0.3,3.8-0.6,5.4-1.3
			c1.9-0.6,3.5-1.3,4.8-2.2s2.5-1.9,3.5-3.5c1-1.3,1.3-2.9,1.3-4.8c0-1.3-0.3-2.5-0.6-3.5C487.7,500.3,487.1,499.7,486.1,499.1
			 M480.4,507.3c-0.3,0.3-0.6,1-1.3,1.3c-0.6,0.3-1.3,1-2.2,1.3c-1,0.3-2.2,0.6-3.8,1l-3.2,0.3c0.3-1,0.6-1.9,1-2.9
			c0.3-1,1-1.9,1.6-2.5s1.3-1.3,2.2-1.9c1-0.3,1.9-0.6,2.9-0.6s1.6,0.3,1.9,0.6c0.6,0.6,0.6,1,0.6,1.9
			C480.7,506.4,480.7,506.7,480.4,507.3 M538.8,515.9l2.2-11.7h7.3c0.3-1.3,0.6-2.2,1-3.2c0.3-1,0.3-2.2,0.3-3.2h-7.3v-1.9
			c0.3-1,0.3-1.6,0.3-2.5c0-0.6,0-1.3,0-1.9c0-1,0-1.6-0.3-2.2c-1.3,0-2.9,0-4.4,0.3c-1.6,0.3-2.9,0.6-3.8,1.6c0,0.6,0,1.3,0,2.2
			s-0.3,1.9-0.3,2.9l-0.3,1.9h-4.4c-0.3,1.3-0.6,2.2-1,3.2c0,1-0.3,2.2-0.3,3.2h4.4l-2.2,12.7c0,0.6-0.3,1.6-0.3,2.2
			c0,0.6,0,1.3,0,1.9c0,2.9,1,5.1,2.5,6.3c1.6,1.3,4.1,1.9,7.3,1.9c2.2,0,4.4-0.3,6-0.6c0-0.3,0-0.6,0-1v-1c0-1.9-0.3-3.5-0.6-4.4
			c-0.3,0-1,0.3-1.6,0.3s-1.3,0-1.9,0c-1.3,0-2.2-0.3-2.5-1c-0.6-0.6-0.6-1.3-0.6-2.5c0-0.3,0-1,0-1.3
			C538.4,516.8,538.4,516.5,538.8,515.9 M515,497.2c-1,0-2.2,0-3.2,0.6c-1,0.3-1.9,0.6-2.9,1.3c-1,0.6-1.6,1.3-2.5,1.9
			c-0.6,0.6-1.3,1.6-1.9,2.2c0-0.6,0-1,0-1.3s0-0.6,0-1c0-1,0-1.6,0-1.9s-0.3-1-0.3-1.3c-0.6,0-1.3-0.3-1.9-0.3s-1.3,0-1.9,0
			c-1.3,0-2.5,0-3.8,0.3c0,0.3,0,0.6,0,1v1c0,1,0,2.5-0.3,4.4s-0.6,4.1-1,6.7l-3.2,17.4c1.3,0.3,2.9,0.3,4.1,0.3
			c1.3,0,2.9,0,4.4-0.3l2.2-12c0.6-2.5,1-4.8,1.6-6.3c0.6-1.6,1.3-2.9,2.2-3.8c0.6-1,1.3-1.6,2.2-1.9c0.6-0.3,1.3-0.3,1.9-0.3
			c1,0,1.6,0.3,2.2,0.6c0.6,0.3,0.6,1.3,0.6,2.5c0,0.6,0,1.6-0.3,2.2l-3.5,19c1.3,0.3,2.9,0.3,4.1,0.3c1.3,0,2.9,0,4.4-0.3l3.5-19.7
			c0-0.6,0.3-1.6,0.3-2.2s0-1.3,0-1.9c0-2.9-0.6-4.8-1.9-6C519.1,497.8,517.2,497.2,515,497.2 M570.5,497.5c-0.6,0-1.6-0.3-2.2-0.3
			c-0.6,0-1.6,0-2.2,0c-1.9,0-3.5,0.3-5.1,0.6c-1.6,0.6-2.9,1.3-4.1,1.9c-1.3,1-2.2,1.9-2.9,3.2c-0.6,1.3-1,2.9-1,4.4
			c0,1.3,0.3,2.2,0.6,2.9c0.3,1,0.6,1.6,1.3,2.2c0.6,0.6,1.3,1,1.9,1.6c0.6,0.3,1.3,0.6,1.9,1l1.9,0.6c1,0.3,1.9,1,2.2,1.3
			c0.6,0.6,1,1.3,1,1.9c0,0.6-0.3,1.3-0.6,1.9c-0.3,0.6-1,1-1.3,1.3c-0.6,0.3-1.3,0.3-1.9,0.6c-0.6,0-1.3,0.3-1.9,0.3
			c-1.3,0-2.5,0-3.8-0.3s-2.5-0.6-3.8-1.3c-1,1.9-1.6,4.1-1.9,6.3c1.3,0.6,2.5,1,4.1,1.3s2.9,0.3,4.1,0.3c2.2,0,4.1-0.3,5.7-0.6
			c1.9-0.3,3.5-1.3,4.8-2.2s2.5-2.2,3.2-3.5c1-1.6,1.3-3.2,1.3-5.1c0-1,0-1.9-0.6-2.9c-0.3-0.6-0.6-1.6-1.3-2.2
			c-0.6-0.6-1.3-1-1.9-1.6c-0.6-0.3-1.6-0.6-2.2-1.3l-2.2-1c-1.6-0.6-2.2-1.6-2.2-2.9c0-0.6,0.3-1,0.6-1.6c0.3-0.3,0.6-0.6,1.3-1
			c0.3-0.3,1-0.3,1.6-0.3s1,0,1.6,0c1,0,2.2,0,3.5,0.3s2.2,0.6,3.2,1c0.6-1,1.3-1.9,1.6-3.2c0.3-1,0.6-1.9,0.6-3.2
			c-0.6-0.3-1.3-0.6-1.9-1C572,497.8,571.1,497.5,570.5,497.5 M410.3,495.9c0.3-1,0.3-1.6,0.3-2.5c0-0.6,0-1.3,0-1.9
			c0-1,0-1.6-0.3-2.2c-1.3,0-2.9,0-4.4,0.3c-1.6,0.3-2.9,0.6-3.8,1.6c0,0.6,0,1.3,0,2.2s-0.3,1.9-0.3,2.9l-0.3,1.9H397
			c-0.3,1.3-0.6,2.2-1,3.2c0,1-0.3,2.2-0.3,3.2h4.4l-2.2,12.7c0,0.6-0.3,1.6-0.3,2.2c0,0.6,0,1.3,0,1.9c0,2.9,0.6,5.1,2.5,6.3
			c1.6,1.3,4.1,1.9,7.3,1.9c2.5,0,4.4-0.3,6-0.6c0-0.3,0-0.6,0-1v-1c0-1.9-0.3-3.5-0.6-4.4c-0.3,0-1,0.3-1.3,0.3c-0.6,0-1,0-1.9,0
			c-1.3,0-2.2-0.3-2.5-1c-0.3-0.6-0.6-1.3-0.6-2.5c0-0.3,0-1,0-1.3s0-1,0.3-1.6l2.2-11.7h7.3c0.3-1.3,0.6-2.2,1-3.2
			c0.3-1,0.3-2.2,0.3-3.2h-7.3V495.9z M301.2,499.1c-1-0.6-1.9-1.3-2.9-1.6c-1.3-0.3-2.2-0.6-3.8-0.6c-2.9,0-5.1,0.6-7.3,1.6
			c-2.2,1.3-4.1,2.5-5.7,4.4s-2.9,3.8-3.5,6.3c-1,2.2-1.3,4.8-1.3,7.3c0,1.9,0.3,3.5,1,5.1c0.6,1.6,1.3,2.9,2.5,4.1
			c1.3,1,2.5,1.9,4.4,2.5c1.6,0.6,3.8,1,6.3,1c0.6,0,1.6,0,2.5,0c1,0,1.9-0.3,2.9-0.3c1-0.3,1.9-0.3,2.9-0.6s1.6-0.6,2.2-1
			c0-1.3,0-2.5-0.3-3.5c-0.3-1.3-0.6-2.2-1.3-2.9c-1.3,0.6-2.5,1-3.8,1.3s-2.5,0.6-4.1,0.6c-1.9,0-3.5-0.3-4.4-1.3s-1.6-2.2-1.9-4.1
			l4.1-0.6c1.9-0.3,3.8-0.6,5.4-1.3c1.9-0.6,3.5-1.3,4.8-2.2s2.5-1.9,3.5-3.5c1-1.3,1.3-2.9,1.3-4.8c0-1.3-0.3-2.5-0.6-3.5
			C302.5,500.3,301.9,499.7,301.2,499.1 M295.5,507.3c-0.3,0.3-0.6,1-1.3,1.3c-0.6,0.3-1.3,1-2.2,1.3c-1,0.3-2.2,0.6-3.8,1l-3.2,0.3
			c0.3-1,0.6-1.9,1-2.9c0.3-1,1-1.9,1.6-2.5s1.3-1.3,2.2-1.9c1-0.3,1.9-0.6,2.9-0.6s1.6,0.3,1.9,0.6c0.6,0.6,0.6,1,0.6,1.9
			C295.9,506.4,295.9,506.7,295.5,507.3 M270.2,494c0.3-0.6,0.6-1.3,1.3-1.9c0.3-0.3,1-0.6,1.6-1s1.3-0.3,1.9-0.3s1.3,0,1.6,0
			c0.6,0,1,0.3,1.6,0.3c0.6-1,1-2.2,1.3-3.2s0.6-2.2,1-3.5c-1-0.3-1.9-0.3-2.9-0.6c-1,0-1.9-0.3-3.2-0.3c-3.8,0-6.7,1-8.9,3.2
			c-2.2,2.2-3.8,5.4-4.4,9.8v0.3H256c-0.3,1.3-0.6,2.2-1,3.2c-0.3,1-0.3,2.2-0.3,3.2h5.1l-4.1,24.4c-0.3,1.9-0.6,3.5-1.3,4.4
			c-0.3,1.3-1,1.9-1.6,2.9c-0.6,0.6-1.3,1-1.9,1.3s-1.3,0.3-2.2,0.3c-0.3,0-0.6,0-1.3,0c-0.6,0-1-0.3-1.6-0.3
			c-1.3,1.9-1.9,4.1-1.9,6.3c1.9,0.6,3.5,1,5.4,1s3.5-0.3,4.8-0.6c1.6-0.3,2.9-1.3,4.1-2.5c1.3-1.3,2.2-2.5,3.2-4.4s1.6-4.4,2.2-7.3
			l4.4-24.1h6.3c0.3-1.3,0.6-2.2,1-3.2c0-1,0.3-1.9,0.3-3.2h-6.3v-0.6C269.5,495.9,269.9,494.9,270.2,494 M354.8,485.4
			c-1.3,0-2.9,0-4.1,0.3L346,513l-10.5-27.3c-1.3-0.3-2.2-0.3-3.5-0.3c-0.6,0-1.3,0-1.9,0s-1.3,0-1.9,0.3l-7.6,42.8
			c1.3,0.3,2.5,0.3,3.8,0.3c0.6,0,1.3,0,1.9,0s1.3,0,1.9-0.3l4.8-27.3l10.5,27.3c1.3,0.3,2.5,0.3,3.5,0.3s2.2,0,3.5-0.3l7.6-42.8
			c-0.6,0-1.3-0.3-1.9-0.3C356.1,485.4,355.5,485.4,354.8,485.4 M383.4,497.8l-2.2,12c-0.6,2.9-1,4.8-1.6,6.3
			c-0.6,1.6-1.3,2.9-2.2,3.8c-0.6,1-1.3,1.6-2.2,1.9c-0.6,0.3-1.3,0.3-1.9,0.3c-1,0-1.6-0.3-2.2-0.6s-0.6-1.3-0.6-2.5
			c0-0.6,0-1.6,0.3-2.2l3.5-19c-1.3-0.3-2.9-0.3-4.1-0.3c-0.6,0-1.3,0-2.2,0c-0.6,0-1.6,0-2.2,0.3l-3.5,19.7c0,0.6-0.3,1.6-0.3,2.2
			c0,0.6,0,1.3,0,1.9c0,2.9,0.6,4.8,1.9,6c1.3,1.3,3.2,1.9,5.7,1.9c1,0,2.2,0,3.2-0.6c1-0.3,1.9-0.6,2.9-1.3c1-0.6,1.6-1.3,2.5-1.9
			c0.6-0.6,1.3-1.6,1.9-2.5c0,0.6,0,1,0,1.3s0,0.6,0,1c0,1,0,1.6,0,1.9s0,1,0.3,1.3c1.3,0.3,2.5,0.3,3.8,0.3s2.5,0,3.8-0.3
			c0-0.3,0-0.6,0-1v-1c0-1,0-2.5,0.3-4.4s0.6-4.1,1-6.7l3.2-17.4c-1.3-0.3-2.9-0.3-4.1-0.3C386.2,497.5,385,497.5,383.4,497.8"/>
	</g>
	<text transform="matrix(1 0 0 1 574.7161 502.3838)" fill="#6CB33F" font-family="'Aller-BoldItalic'" font-size="24">TM</text>
</g>
</svg>
