<?xml version="1.0" encoding="utf-8"?>
<!-- Generator: Adobe Illustrator 18.1.0, SVG Export Plug-In . SVG Version: 6.00 Build 0)  -->
<!DOCTYPE svg PUBLIC "-//W3C//DTD SVG 1.1//EN" "http://www.w3.org/Graphics/SVG/1.1/DTD/svg11.dtd">
<svg version="1.1" id="Layer_1" xmlns="http://www.w3.org/2000/svg" xmlns:xlink="http://www.w3.org/1999/xlink" x="0px" y="0px"
	 viewBox="0 0 190.9 77.4" enable-background="new 0 0 190.9 77.4" preserveAspectRatio="none slice" xml:space="preserve">
<g>
	<path fill-rule="evenodd" clip-rule="evenodd" fill="#6CB33F" d="M105.9,1.9C106,1.9,106,1.9,105.9,1.9c5,5.3,8.8,11.6,12.2,18.4
		c0.7-5.8,1.6-11.4,2.7-16.7c-0.2,5.2-0.3,11.5-0.3,17.5c0,2.9-0.2,5.9,0.8,7.8c1.2-7.9,2.9-15.3,5.3-22c-2,12.1-2.9,28.3-0.7,41.1
		c0.9-11.7,1.7-23.5,2.9-35c0.9,10.2,1.5,20.6,2.6,30.7c1.7-11.3,3.4-22.5,5.3-33.7c0,7.7-0.1,18.7,0,27.2
		c0.7-6.1,1.1-12.5,1.9-18.5c0.9,8.4,1.5,17.2,2.6,25.5c0.8-9.6,0.4-20.8-0.5-29.7c1.9,6.1,3.1,13,4.4,19.7c1.1-2.8,2.6-5.2,4.2-7.5
		c0.3-4.6,0.7-9.2,1.1-13.7c0.4,3.5,0.7,7.2,0.9,10.9c0.7-0.6,1.2-1.3,1.9-2.1c0.6-0.6,1.6-1.3,1.9-2.1c0.4-0.9,0.5-2.3,0.7-3.4
		c0.7-3.2,1.4-6.6,2.5-9.5c-0.3,3.3-0.6,6.7-0.6,10.3c0,0.5,0.2-0.2,0.5-0.1c-1.1,1.5-0.5,5-0.5,7.7c0,6.2,0.9,12.8,1.8,18
		c0.5-5.7,1-11.3,1.7-16.9c0.9,6.8,1.3,14,2.2,20.8c3.5-12.5,0.3-27.9-4.4-36.2c5.7,7.4,9.5,16.6,10.9,28.3
		c0.2-10.6-1.6-19.2-4.2-27.1c3.1,5.1,5.1,11.3,7,17.5c0.9-7.8,2.1-15.2,3.9-22.2c-0.7,11-0.9,23.8,0.1,34.7
		c0.6-5.2,0.9-10.7,1.7-15.7c0.7,6.3,1.1,12.8,2,18.9c1-14.2,1.7-28.7,3-42.7c0.8,11.8,1.4,23.8,2.5,35.4
		c0.8-11.1-0.1-22.8-1.6-32.2c4,11.5,6.5,24.6,7,39.6c0,1.9,0,3.9,0,5.8c-0.2,0.3-0.2,1.3,0,1.6c0,8.4,0,16.8,0,25.2
		c-63.9,0-127.8,0-191.7,0c0-8.4,0-16.8,0-25.3c0.3-3,0.3-6.8,0.7-10c0.3-3,1.1-6.1,1.3-9c0.2-4.3-1.4-8.3-1.2-12.7
		c0.8,2.3,1.4,4.9,2.4,7c0.3-1.4,0.5-2.8,1-3.9c-0.1,2.6-0.9,6.2,0.3,8.2c0.5-3.7,0.5-7.8,1.3-11.3c0,1,0.1,2,0.3,2.8
		c0.1-0.9,0-2.1,0.4-2.8C7,29,7.2,38.2,8.9,46c0.7-6.3-0.5-12.8-1.2-19.1C7.1,22,6.4,17.2,6.2,12.4c1.8,5.5,3.4,11.1,5.4,16.4
		c0.5-2.3,1-4.6,1.7-6.9c0.2-0.7,0.7-1.5,0.7-2.1c0.1-1.2-0.8-3.3-1.2-4.6c-0.5-1.5-1-2.9-1.5-4.3c3.1,4.6,5.1,10.3,7.1,16
		c1.1-7.2,2.8-13.8,5-20c-2.1,12.2-2.7,28.3-0.7,41c0.9-11.7,1.7-23.4,2.9-34.9c0.9,10.2,1.5,20.6,2.6,30.7
		c1.8-11.2,3.3-22.7,5.4-33.7c-0.2,8.1-0.1,19-0.1,27.3c0.7-6.1,1.1-12.6,1.9-18.6c0.9,7.9,1.5,16.1,2.4,23.9
		c1-8.8,0.7-19.8-0.3-28.1c2.8,8,4.4,17.1,5.6,26.8c0.6-10.6-1.3-19.5-4.1-27c3.3,5.1,5.6,11.3,7.5,17.9c0.1-7-0.3-14,0-20.9
		c1.8,11,3.5,22.3,5.4,33.3c0.9-10,1.5-20.4,2.6-30.3c0.9,11.4,1.7,22.8,2.8,34.1c0.7-6.4,1.3-13.5,1.2-20.6c-0.1-7-1-13.8-1.9-19.7
		c2.1,5.7,3.5,12,4.9,18.5c1.9-4.5,4.2-9.1,7.1-12.4c-3.9,7.5-7.1,17.9-5.1,29.2c0.9-8.8,2.3-17.2,4.5-24.7
		c-0.2,4.7-0.6,10.1-0.2,14.8c1-2.3,2.4-4.7,3.9-6.9c0.5-0.7,1.6-1.5,1.6-2.2c0.2-3.6,0.5-7.5,0.9-11.4c0.4,3,0.6,6.2,0.8,9.4
		c1-1.6,3.2-2.4,4-4.3c0.7-1.7,0.8-3.8,1.3-5.8c0.5-1.9,1-3.8,1.6-5.5c-0.9,9.8-0.9,21.5,0.5,30.8c0.5-3.9,0.6-8.1,1.3-11.8
		c0.8,7.5,1.4,15.2,2.3,22.6c1.9-5.9,2.5-13.5,1.6-20.7C86.6,21.1,84.2,15,82,10.4c4.8,6.2,8.2,13.7,10.1,22.7
		c-0.4-8.1-2-15-4.1-21.5c3.3,5.7,5.5,12.3,7.3,19.5c0.1-4.9-0.1-11,0.1-16.1c1.5,8.7,2.8,17.6,4.5,26.1c0.9-6.2,2-12.1,3.6-17.6
		c-0.3,6.4-0.6,14,0.1,20.3c2.1-11.1,4.2-22.2,6.6-33.1c0.1,6.8-0.3,13.6,0,20.3c1.3-2.9,2.9-6.1,4.6-8.3
		c-3.1,7.1-5.3,17.6-3.6,27.6c0.8-7,1.3-14.3,2.4-21.2c0.7,6.5,1.2,13.3,2.2,19.6c0.1-5,0.4-9.4,0.8-14.2c0.1-1.6,0.5-3.1,0.4-4.6
		c-0.1-2.6-1.1-5.4-1.8-8c-1.4-5.1-3.4-9.6-5.6-13.8C108.4,5.9,107.2,3.9,105.9,1.9z M76.7,22.6c-0.5,0.9-1.3,2-1.5,2.8
		c-0.2,1,0.1,2.3,0.2,3.5c0.3,3.4,0.6,7,0.9,10.2c0.3-6.8,1.4-13.3,2.2-19.3C77.9,20.7,77.3,21.5,76.7,22.6z M13.7,28.1
		c-0.1,2.4-0.5,5-0.2,7c0.3,1.8,1.3,3.5,1.7,5c0.6-6.3,0.4-13.8-1-19C14,23.2,13.8,25.6,13.7,28.1z M151.7,28
		c-0.3,1.8,0.3,4.1,0.5,6.1c0.2,2.1,0.2,4.1,0.5,6.1c0.2-6.3,1.1-12.3,1.8-17.8C153.9,23.8,151.9,26.3,151.7,28z M71.9,40.3
		c0.1-2.3,0.5-4.7,0.4-6.9C72,35.5,71.5,37.9,71.9,40.3z"/>
</g>
</svg>
