<?xml version="1.0" encoding="utf-8"?>
<!-- Generator: Adobe Illustrator 18.0.0, SVG Export Plug-In . SVG Version: 6.00 Build 0)  -->
<!DOCTYPE svg PUBLIC "-//W3C//DTD SVG 1.1//EN" "http://www.w3.org/Graphics/SVG/1.1/DTD/svg11.dtd">
<svg version="1.1" id="Layer_1" xmlns="http://www.w3.org/2000/svg" xmlns:xlink="http://www.w3.org/1999/xlink" x="0px" y="0px"
	 viewBox="0 0 119 155" enable-background="new 0 0 119 155" xml:space="preserve">
<g>
	<path fill="#6CBE45" d="M25.2,11.9c0,0,1.1,30.1,25.7,56.2c24.6,26.1,61.3,36.3,61.3,36.3s-13-44.2-31.7-62.6
		C61.7,23.5,25.2,11.9,25.2,11.9z"/>
	<g opacity="0.3">
		<defs>
			<path id="SVGID_1_" opacity="0.3" d="M25.5,12.2c0,0,1.1,30.1,25.7,56.2c24.6,26.1,61.3,36.3,61.3,36.3s-13-44.2-31.7-62.6
				C62.1,23.7,25.5,12.2,25.5,12.2z"/>
		</defs>
		<clipPath id="SVGID_2_">
			<use xlink:href="#SVGID_1_"  overflow="visible"/>
		</clipPath>
	</g>
	<path fill="#004712" d="M51.9,27.6c4.2,2.7,4.9,8.1,1.7,12.1c-3.2,4-9.2,5-13.3,2.3c-4.2-2.7-4.9-8.1-1.7-12.1
		C41.7,26,47.7,24.9,51.9,27.6z"/>
	<path fill="#004712" d="M66.5,44c4.1,2.7,4.9,8.1,1.7,12.1c-3.2,4-9.2,5-13.3,2.3c-4.1-2.7-4.9-8.1-1.7-12.1
		C56.4,42.3,62.4,41.3,66.5,44z"/>
	<path fill="#004712" d="M81.3,60.6c4.2,2.7,4.9,8.1,1.7,12.1c-3.2,4-9.2,5-13.3,2.3c-4.2-2.7-4.9-8.1-1.7-12.1
		C71.2,58.9,77.2,57.9,81.3,60.6z"/>
	<path fill="#004712" d="M96.8,74.8c4.2,2.7,4.9,8.1,1.7,12.1c-3.2,4-9.2,5-13.3,2.3c-4.2-2.7-4.9-8.1-1.7-12.1
		C86.7,73.1,92.6,72.1,96.8,74.8z"/>
	<path fill="#004712" d="M36.3,15.4l-8.7-6L23,11l2.9,9.7l0,0c-0.2,3.7,1.1,5.8-2.9,7.2c6.2,1,9-2.6,6.7-7.9
		c4.4,0,10.4,0.9,10.7-5.1C38.8,15,37.5,15.1,36.3,15.4z"/>
	<g opacity="0.1">
		<defs>
			<path id="SVGID_3_" opacity="0.1" d="M52,27.7c4.2,2.7,4.9,8.1,1.7,12.1c-3.2,4-9.2,5-13.3,2.3c-4.2-2.7-4.9-8.1-1.7-12.1
				C41.9,26,47.8,25,52,27.7z"/>
		</defs>
		<clipPath id="SVGID_4_">
			<use xlink:href="#SVGID_3_"  overflow="visible"/>
		</clipPath>
	</g>
	<g opacity="0.1">
		<defs>
			<path id="SVGID_5_" opacity="0.1" d="M66.5,44c4.2,2.7,4.9,8.1,1.7,12.1c-3.2,4-9.2,5-13.3,2.3c-4.2-2.7-4.9-8.1-1.7-12.1
				C56.4,42.4,62.4,41.3,66.5,44z"/>
		</defs>
		<clipPath id="SVGID_6_">
			<use xlink:href="#SVGID_5_"  overflow="visible"/>
		</clipPath>
	</g>
	<g opacity="0.1">
		<defs>
			<path id="SVGID_7_" opacity="0.1" d="M96.8,74.8c4.2,2.7,4.9,8.1,1.7,12.1c-3.2,4-9.2,5-13.3,2.3c-4.2-2.7-4.9-8.1-1.7-12.1
				C86.7,73.1,92.6,72.1,96.8,74.8z"/>
		</defs>
		<clipPath id="SVGID_8_">
			<use xlink:href="#SVGID_7_"  overflow="visible"/>
		</clipPath>
	</g>
	<g opacity="0.1">
		<defs>
			<path id="SVGID_9_" opacity="0.1" d="M81.3,60.6c4.2,2.7,4.9,8.1,1.7,12.1c-3.2,4-9.2,5-13.3,2.3c-4.2-2.7-4.9-8.1-1.7-12.1
				C71.2,58.9,77.2,57.9,81.3,60.6z"/>
		</defs>
		<clipPath id="SVGID_10_">
			<use xlink:href="#SVGID_9_"  overflow="visible"/>
		</clipPath>
	</g>
	<g opacity="0.2">
		<defs>
			<path id="SVGID_11_" opacity="0.2" d="M36.3,15.4l-8.7-6L23,11l2.9,9.7l0,0c-0.2,3.7,1.1,5.8-2.9,7.2c6.2,1,9-2.6,6.7-7.9
				c4.4,0,10.4,0.9,10.7-5.1C38.8,15,37.5,15.1,36.3,15.4z"/>
		</defs>
		<clipPath id="SVGID_12_">
			<use xlink:href="#SVGID_11_"  overflow="visible"/>
		</clipPath>
	</g>
</g>
<g>
	<path fill="#003501" d="M17.3,46.3c0,0-14,20.7-10.6,50.1c3.4,29.4,22.6,54,22.6,54s13.1-35.9,9.8-57.3
		C35.7,71.7,17.3,46.3,17.3,46.3z"/>
	<path fill="#6CB33F" d="M27.2,69.7c1.4,3.8-0.8,7.8-4.8,8.9c-4.1,1.1-8.5-1.1-9.9-4.9c-1.4-3.8,0.8-7.8,4.8-8.9
		C21.3,63.7,25.8,65.9,27.2,69.7z"/>
	<path fill="#6CB33F" d="M28.8,87.7c1.4,3.8-0.8,7.8-4.8,8.9c-4.1,1.1-8.5-1.1-9.9-4.9c-1.4-3.8,0.8-7.8,4.8-8.9
		C22.9,81.7,27.4,83.9,28.8,87.7z"/>
	<path fill="#6CB33F" d="M30.4,106c1.4,3.8-0.8,7.8-4.8,8.9c-4.1,1.1-8.5-1.1-9.9-4.9c-1.4-3.8,0.8-7.8,4.8-8.9
		C24.6,100,29,102.2,30.4,106z"/>
	<path fill="#6CB33F" d="M33.7,123c1.4,3.8-0.8,7.8-4.8,8.9c-4.1,1.1-8.5-1.1-9.9-4.9c-1.4-3.8,0.8-7.8,4.8-8.9
		C27.8,117,32.2,119.2,33.7,123z"/>
	<path fill="#6CB33F" d="M22.9,53.9l-2.8-8.3l-3.8-1.1l-2.9,7.9h0c-2,2.3-2.1,4.4-5.4,3.4c3.6,3.7,7.2,2.6,8.3-2.1
		c2.9,2.2,6.4,5.6,9.5,1.8C24.8,54.9,23.8,54.3,22.9,53.9z"/>
	<g opacity="0.1">
		<defs>
			<path id="SVGID_13_" opacity="0.1" d="M27.2,69.8c1.4,3.8-0.8,7.8-4.8,8.9c-4.1,1.1-8.5-1.1-9.9-4.9C11,70,13.2,66,17.3,64.9
				C21.3,63.8,25.8,66,27.2,69.8z"/>
		</defs>
		<clipPath id="SVGID_14_">
			<use xlink:href="#SVGID_13_"  overflow="visible"/>
		</clipPath>
	</g>
	<g opacity="0.1">
		<defs>
			<path id="SVGID_15_" opacity="0.1" d="M28.8,87.7c1.4,3.8-0.8,7.8-4.8,8.9c-4.1,1.1-8.5-1.1-9.9-4.9c-1.4-3.8,0.8-7.8,4.8-8.9
				C22.9,81.7,27.4,83.9,28.8,87.7z"/>
		</defs>
		<clipPath id="SVGID_16_">
			<use xlink:href="#SVGID_15_"  overflow="visible"/>
		</clipPath>
	</g>
	<g opacity="0.1">
		<defs>
			<path id="SVGID_17_" opacity="0.1" d="M33.7,123c1.4,3.8-0.8,7.8-4.8,8.9c-4.1,1.1-8.5-1.1-9.9-4.9c-1.4-3.8,0.8-7.8,4.8-8.9
				C27.8,117,32.2,119.2,33.7,123z"/>
		</defs>
		<clipPath id="SVGID_18_">
			<use xlink:href="#SVGID_17_"  overflow="visible"/>
		</clipPath>
	</g>
	<g opacity="0.1">
		<defs>
			<path id="SVGID_19_" opacity="0.1" d="M30.4,106c1.4,3.8-0.8,7.8-4.8,8.9c-4.1,1.1-8.5-1.1-9.9-4.9c-1.4-3.8,0.8-7.8,4.8-8.9
				C24.6,100,29,102.2,30.4,106z"/>
		</defs>
		<clipPath id="SVGID_20_">
			<use xlink:href="#SVGID_19_"  overflow="visible"/>
		</clipPath>
	</g>
	<g opacity="0.2">
		<defs>
			<path id="SVGID_21_" opacity="0.2" d="M22.9,53.9l-2.8-8.3l-3.8-1.1l-2.9,7.9h0c-2,2.3-2.1,4.4-5.4,3.4c3.6,3.7,7.2,2.6,8.3-2.1
				c2.9,2.2,6.4,5.6,9.5,1.8C24.8,54.9,23.8,54.3,22.9,53.9z"/>
		</defs>
		<clipPath id="SVGID_22_">
			<use xlink:href="#SVGID_21_"  overflow="visible"/>
		</clipPath>
	</g>
</g>
</svg>
